Coordinates
version=1
nRows=6
nColumns=36
inDegrees=yes

Units are S.I. units (second, meters, Newtons, ...)
If the header above contains a line with 'inDegrees', this indicates whether rotational values are in degrees (yes) or radians (no).

endheader
time	pelvis_tilt	pelvis_list	pelvis_rotation	pelvis_tx	pelvis_ty	pelvis_tz	hip_flexion_r	hip_adduction_r	hip_rotation_r	knee_angle_r	knee_angle_r_beta	ankle_angle_r	subtalar_angle_r	mtp_angle_r	hip_flexion_l	hip_adduction_l	hip_rotation_l	knee_angle_l	knee_angle_l_beta	ankle_angle_l	subtalar_angle_l	mtp_angle_l	lumbar_extension	lumbar_bending	lumbar_rotation	arm_flex_r	arm_add_r	arm_rot_r	elbow_flex_r	pro_sup_r	arm_flex_l	arm_add_l	arm_rot_l	elbow_flex_l	pro_sup_l
      0.78000000	    -11.10164212	     -2.63806411	      8.24965888	     -0.75478177	      1.41762645	     -0.58786552	     18.86502083	     -0.61901101	     -9.38621308	     41.65910244	      0.72708850	    -19.70551722	    -14.07134633	     -4.65868951	     15.02828065	     -3.74033851	     -1.66387649	     38.09405504	      0.66486669	    -20.54023129	    -12.02155230	     -4.65868951	     -3.47691732	      0.41512950	     -3.09337673	     19.57594344	    -51.57273788	    -41.22470644	    116.90323512	     97.39495662	     44.11457268	    -32.30570709	      4.15916634	    112.06692736	     95.05475105
      0.79000000	    -10.44464075	     -2.60639730	      8.34696611	     -0.74310213	      1.42177055	     -0.58806707	     18.95336669	     -0.73433781	     -9.37378212	     41.89851066	      0.73126696	    -19.58505308	    -15.14257806	     -4.68978397	     15.53250120	     -3.76108803	     -1.52201267	     39.71075953	      0.69308350	    -19.04728491	    -13.75899942	     -4.68978397	     -4.12774021	      0.56978274	     -3.44081860	     18.09854217	    -51.85732425	    -43.11065095	    115.91382113	     97.39102232	     42.32055768	    -33.12543992	      2.11378882	    113.93853530	     95.16646796
      0.80000000	     -9.96492561	     -2.58520192	      8.39796204	     -0.73147777	      1.42480586	     -0.58815134	     19.15269255	     -0.88184951	     -9.36300606	     41.79523314	      0.72946443	    -19.71855581	    -15.73918179	     -4.71641297	     16.12250270	     -3.80244398	     -1.44856112	     40.83118948	      0.71263869	    -18.18047693	    -14.89228948	     -4.71641297	     -4.60912692	      0.71140344	     -3.73773767	     16.27996329	    -52.12175535	    -45.06445642	    115.15841127	     97.40060845	     40.23914135	    -33.93163309	      0.06750907	    115.81240482	     95.25379799
      0.81000000	     -9.54647019	     -2.58505543	      8.39989166	     -0.71983170	      1.42715660	     -0.58812587	     19.26053508	     -0.97987804	     -9.34351928	     41.15285752	      0.71825286	    -20.31987527	    -16.09190948	     -4.78639055	     16.58575092	     -3.86709038	     -1.40719357	     41.25714262	      0.72007298	    -18.15446824	    -15.66309542	     -4.78639055	     -5.10718727	      0.91845342	     -3.72538887	     13.55059239	    -52.36045074	    -47.93264662	    114.96258659	     97.64294316	     38.01988117	    -34.38327161	     -2.25926961	    117.29003875	     95.15306079
      0.82000000	     -8.96281492	     -2.45083103	      8.35805279	     -0.70825246	      1.42885004	     -0.58803286	     19.07400089	     -1.18866572	     -9.30030400	     40.16706934	      0.70104761	    -20.52310545	    -15.81004019	     -5.34702443	     16.64082804	     -3.80992103	     -1.42599539	     41.03763171	      0.71624179	    -18.13383752	    -16.10539869	     -5.34702443	     -6.01897196	      0.74190387	     -1.27702100	      4.45766415	    -52.99920608	    -57.75637285	    115.15357248	     99.27079252	     38.82089379	    -33.04232045	     -0.71779662	    117.22083372	     93.98561002
      0.83000000	     -8.47656331	     -2.31885132	      8.28908631	     -0.69659217	      1.42977031	     -0.58794754	     18.90130533	     -1.39546617	     -9.25907044	     38.85996624	      0.67823436	    -20.70374515	    -15.14972501	     -5.37117914	     16.58380428	     -3.73096190	     -1.45171403	     40.17037669	      0.70110533	    -18.03544301	    -16.03624082	     -5.37117914	     -6.66018589	      0.78760618	     -1.54053840	      2.46706640	    -52.84262503	    -59.44519983	    114.34384808	     99.14101204	     36.12455161	    -33.93786504	     -3.10967032	    119.00645007	     94.09054053
